<svg width="850" height="192" viewBox="0 0 850 192" fill="none" xmlns="http://www.w3.org/2000/svg">
<path d="M326.76 44.28C324.12 44.28 321.693 43.6667 319.48 42.44C317.293 41.2133 315.547 39.5067 314.24 37.32C312.96 35.1067 312.32 32.6267 312.32 29.88C312.32 27.1333 312.96 24.6667 314.24 22.48C315.547 20.2933 317.293 18.5867 319.48 17.36C321.693 16.1333 324.12 15.52 326.76 15.52C329.4 15.52 331.813 16.1333 334 17.36C336.213 18.5867 337.947 20.2933 339.2 22.48C340.48 24.6667 341.12 27.1333 341.12 29.88C341.12 32.6267 340.48 35.1067 339.2 37.32C337.92 39.5067 336.187 41.2133 334 42.44C331.813 43.6667 329.4 44.28 326.76 44.28ZM326.76 38.04C329 38.04 330.787 37.2933 332.12 35.8C333.48 34.3067 334.16 32.3333 334.16 29.88C334.16 27.4 333.48 25.4267 332.12 23.96C330.787 22.4667 329 21.72 326.76 21.72C324.493 21.72 322.68 22.4533 321.32 23.92C319.987 25.3867 319.32 27.3733 319.32 29.88C319.32 32.36 319.987 34.3467 321.32 35.84C322.68 37.3067 324.493 38.04 326.76 38.04ZM366.965 21.68V44H360.125V40.96C359.432 41.9467 358.485 42.7467 357.285 43.36C356.112 43.9467 354.805 44.24 353.365 44.24C351.659 44.24 350.152 43.8667 348.845 43.12C347.539 42.3467 346.525 41.24 345.805 39.8C345.085 38.36 344.725 36.6667 344.725 34.72V21.68H351.525V33.8C351.525 35.2933 351.912 36.4533 352.685 37.28C353.459 38.1067 354.499 38.52 355.805 38.52C357.139 38.52 358.192 38.1067 358.965 37.28C359.739 36.4533 360.125 35.2933 360.125 33.8V21.68H366.965ZM378.718 25.4C379.518 24.1733 380.518 23.2133 381.718 22.52C382.918 21.8 384.252 21.44 385.718 21.44V28.68H383.838C382.132 28.68 380.852 29.0533 379.998 29.8C379.145 30.52 378.718 31.8 378.718 33.64V44H371.878V21.68H378.718V25.4ZM396.304 29.92C396.304 27.1467 396.904 24.68 398.104 22.52C399.304 20.3333 400.971 18.64 403.104 17.44C405.264 16.2133 407.704 15.6 410.424 15.6C413.758 15.6 416.611 16.48 418.984 18.24C421.358 20 422.944 22.4 423.744 25.44H416.224C415.664 24.2667 414.864 23.3733 413.824 22.76C412.811 22.1467 411.651 21.84 410.344 21.84C408.238 21.84 406.531 22.5733 405.224 24.04C403.918 25.5067 403.264 27.4667 403.264 29.92C403.264 32.3733 403.918 34.3333 405.224 35.8C406.531 37.2667 408.238 38 410.344 38C411.651 38 412.811 37.6933 413.824 37.08C414.864 36.4667 415.664 35.5733 416.224 34.4H423.744C422.944 37.44 421.358 39.84 418.984 41.6C416.611 43.3333 413.758 44.2 410.424 44.2C407.704 44.2 405.264 43.6 403.104 42.4C400.971 41.1733 399.304 39.48 398.104 37.32C396.904 35.16 396.304 32.6933 396.304 29.92ZM434.773 14.4V44H427.933V14.4H434.773ZM443.17 19.36C441.97 19.36 440.983 19.0133 440.21 18.32C439.463 17.6 439.09 16.72 439.09 15.68C439.09 14.6133 439.463 13.7333 440.21 13.04C440.983 12.32 441.97 11.96 443.17 11.96C444.343 11.96 445.303 12.32 446.05 13.04C446.823 13.7333 447.21 14.6133 447.21 15.68C447.21 16.72 446.823 17.6 446.05 18.32C445.303 19.0133 444.343 19.36 443.17 19.36ZM446.57 21.68V44H439.73V21.68H446.57ZM472.567 32.48C472.567 33.12 472.527 33.7867 472.447 34.48H456.967C457.074 35.8667 457.514 36.9333 458.287 37.68C459.087 38.4 460.06 38.76 461.207 38.76C462.914 38.76 464.1 38.04 464.767 36.6H472.047C471.674 38.0667 470.994 39.3867 470.007 40.56C469.047 41.7333 467.834 42.6533 466.367 43.32C464.9 43.9867 463.26 44.32 461.447 44.32C459.26 44.32 457.314 43.8533 455.607 42.92C453.9 41.9867 452.567 40.6533 451.607 38.92C450.647 37.1867 450.167 35.16 450.167 32.84C450.167 30.52 450.634 28.4933 451.567 26.76C452.527 25.0267 453.86 23.6933 455.567 22.76C457.274 21.8267 459.234 21.36 461.447 21.36C463.607 21.36 465.527 21.8133 467.207 22.72C468.887 23.6267 470.194 24.92 471.127 26.6C472.087 28.28 472.567 30.24 472.567 32.48ZM465.567 30.68C465.567 29.5067 465.167 28.5733 464.367 27.88C463.567 27.1867 462.567 26.84 461.367 26.84C460.22 26.84 459.247 27.1733 458.447 27.84C457.674 28.5067 457.194 29.4533 457.007 30.68H465.567ZM489.775 21.44C492.389 21.44 494.469 22.2933 496.015 24C497.589 25.68 498.375 28 498.375 30.96V44H491.575V31.88C491.575 30.3867 491.189 29.2267 490.415 28.4C489.642 27.5733 488.602 27.16 487.295 27.16C485.989 27.16 484.949 27.5733 484.175 28.4C483.402 29.2267 483.015 30.3867 483.015 31.88V44H476.175V21.68H483.015V24.64C483.709 23.6533 484.642 22.88 485.815 22.32C486.989 21.7333 488.309 21.44 489.775 21.44ZM515.568 38.2V44H512.088C509.608 44 507.675 43.4 506.288 42.2C504.902 40.9733 504.208 38.9867 504.208 36.24V27.36H501.488V21.68H504.208V16.24H511.048V21.68H515.528V27.36H511.048V36.32C511.048 36.9867 511.208 37.4667 511.528 37.76C511.848 38.0533 512.382 38.2 513.128 38.2H515.568ZM528.458 44.32C526.512 44.32 524.778 43.9867 523.258 43.32C521.738 42.6533 520.538 41.7467 519.658 40.6C518.778 39.4267 518.285 38.12 518.178 36.68H524.938C525.018 37.4533 525.378 38.08 526.018 38.56C526.658 39.04 527.445 39.28 528.378 39.28C529.232 39.28 529.885 39.12 530.338 38.8C530.818 38.4533 531.058 38.0133 531.058 37.48C531.058 36.84 530.725 36.3733 530.058 36.08C529.392 35.76 528.312 35.4133 526.818 35.04C525.218 34.6667 523.885 34.28 522.818 33.88C521.752 33.4533 520.832 32.8 520.058 31.92C519.285 31.0133 518.898 29.8 518.898 28.28C518.898 27 519.245 25.84 519.938 24.8C520.658 23.7333 521.698 22.8933 523.058 22.28C524.445 21.6667 526.085 21.36 527.978 21.36C530.778 21.36 532.978 22.0533 534.578 23.44C536.205 24.8267 537.138 26.6667 537.378 28.96H531.058C530.952 28.1867 530.605 27.5733 530.018 27.12C529.458 26.6667 528.712 26.44 527.778 26.44C526.978 26.44 526.365 26.6 525.938 26.92C525.512 27.2133 525.298 27.6267 525.298 28.16C525.298 28.8 525.632 29.28 526.298 29.6C526.992 29.92 528.058 30.24 529.498 30.56C531.152 30.9867 532.498 31.4133 533.538 31.84C534.578 32.24 535.485 32.9067 536.258 33.84C537.058 34.7467 537.472 35.9733 537.498 37.52C537.498 38.8267 537.125 40 536.378 41.04C535.658 42.0533 534.605 42.8533 533.218 43.44C531.858 44.0267 530.272 44.32 528.458 44.32Z" fill="white"/>
<g clip-path="url(#clip0_49_739)">
<path d="M45.5801 161.436C45.3306 160.827 45.0968 160.186 44.8474 159.639L43.6939 157.03L43.6471 156.983C40.2177 149.483 36.5545 141.858 32.673 134.358L32.5171 134.046C32.1274 133.311 31.7377 132.499 31.3324 131.749C30.8336 130.858 30.3503 129.905 29.5553 128.999C28.7804 128.051 27.8051 127.287 26.6999 126.762C25.5947 126.237 24.3871 125.965 23.1642 125.965C21.9413 125.965 20.7337 126.237 19.6284 126.762C18.5232 127.287 17.5479 128.051 16.773 128.999C16.0404 129.905 15.4948 130.858 14.9959 131.749C14.6062 132.561 14.2165 133.358 13.8112 134.093L13.6554 134.405C9.83623 141.905 6.11065 149.53 2.68123 157.03L2.5877 157.124C2.24476 157.936 1.83947 158.78 1.44976 159.686C1.20035 160.233 0.95094 160.827 0.701529 161.483C0.0281678 163.202 -0.186858 165.066 0.0776443 166.893C0.342146 168.72 1.07705 170.447 2.20992 171.903C3.34279 173.358 4.83452 174.493 6.53811 175.195C8.2417 175.897 10.0983 176.141 11.9251 175.905C13.6763 175.674 15.3627 175.089 16.8821 174.186C18.9086 173.046 20.8571 171.389 23.0395 168.999C25.2218 171.389 27.2171 173.046 29.1968 174.202C31.1006 175.322 33.2566 175.94 35.4633 175.999C38.0187 176.009 40.4918 175.093 42.4257 173.419C44.3597 171.744 45.6241 169.425 45.9853 166.889C46.4029 165.067 46.2616 163.161 45.5801 161.421V161.436ZM23.1953 164.03C20.5142 160.593 18.7683 157.436 18.1759 154.733C17.9305 153.731 17.8776 152.692 18.0201 151.671C18.1292 150.874 18.4254 150.171 18.8306 149.577C19.7659 148.218 21.4027 147.374 23.1953 147.374C24.0467 147.348 24.8911 147.534 25.653 147.916C26.4148 148.298 27.0701 148.863 27.5601 149.561C27.9654 150.186 28.2615 150.874 28.3551 151.671C28.5109 152.577 28.4486 153.624 28.1992 154.733C27.6068 157.389 25.8609 160.577 23.1953 164.03ZM43.0548 166.343C42.8777 167.63 42.3671 168.848 41.5739 169.876C40.7808 170.904 39.7327 171.706 38.5342 172.202C37.3495 172.702 36.0401 172.843 34.7618 172.702C33.5148 172.546 32.2677 172.139 30.9895 171.389C28.8671 170.075 26.9587 168.441 25.3309 166.546C28.6045 162.483 30.5842 158.78 31.3324 155.483C31.6909 153.921 31.7377 152.514 31.5818 151.218C31.3872 149.988 30.9299 148.816 30.2412 147.78C29.455 146.657 28.4055 145.745 27.185 145.124C25.9646 144.502 24.6106 144.191 23.2421 144.218C20.3583 144.218 17.7862 145.561 16.2274 147.764C15.5257 148.797 15.0722 149.979 14.9024 151.218C14.6998 152.53 14.7465 153.983 15.1518 155.483C15.9001 158.78 17.9265 162.53 21.1533 166.577C19.5531 168.508 17.6403 170.156 15.4948 171.452C14.2009 172.202 12.9695 172.593 11.7224 172.749C9.78305 172.998 7.82402 172.469 6.27114 171.279C4.71826 170.088 3.69705 168.331 3.42947 166.389C3.27359 165.139 3.3827 163.889 3.88153 162.483C4.03741 161.983 4.27123 161.483 4.52065 160.889C4.86359 160.077 5.26888 159.233 5.65859 158.389L5.72094 158.28C9.088 150.827 12.7668 143.218 16.5859 135.764L16.7418 135.452C17.1315 134.702 17.5212 133.905 17.9265 133.155C18.3318 132.358 18.7683 131.593 19.3295 130.968C19.8152 130.386 20.4222 129.919 21.1076 129.598C21.793 129.277 22.5402 129.111 23.2967 129.111C24.0531 129.111 24.8003 129.277 25.4858 129.598C26.1712 129.919 26.7781 130.386 27.2639 130.968C27.8095 131.593 28.2615 132.358 28.6668 133.155C29.0565 133.905 29.4462 134.718 29.8515 135.452L30.0074 135.764C33.8109 143.218 37.4898 150.827 40.9192 158.28L40.9659 158.327C41.3712 159.139 41.7142 160.046 42.1039 160.827C42.3533 161.436 42.6027 161.921 42.7586 162.436C43.0548 163.843 43.2106 165.093 43.0548 166.343V166.343ZM64.7536 163.686C63.5789 163.703 62.4155 163.455 61.3496 162.96C60.2837 162.465 59.3426 161.736 58.5962 160.827C56.919 158.889 56.0289 156.391 56.1021 153.827C56.0764 151.207 56.9953 148.666 58.6898 146.671C59.4735 145.75 60.4492 145.012 61.548 144.51C62.6469 144.008 63.8422 143.753 65.0498 143.764C66.186 143.733 67.3116 143.992 68.3205 144.517C69.3294 145.042 70.1887 145.815 70.8174 146.764L70.9733 144.311H75.525V163.186H70.9577L70.8018 160.436C70.1536 161.45 69.2577 162.28 68.1991 162.849C67.1405 163.418 65.9545 163.706 64.7536 163.686V163.686ZM65.9383 159.186C66.8424 159.186 67.6374 158.936 68.3856 158.483C69.0715 157.983 69.6327 157.327 70.0692 156.53C70.4589 155.733 70.6615 154.78 70.6615 153.718C70.7223 152.795 70.5431 151.872 70.1414 151.039C69.7398 150.207 69.1294 149.493 68.37 148.968C67.6404 148.512 66.798 148.27 65.9383 148.27C65.0786 148.27 64.2362 148.512 63.5065 148.968C62.8206 149.468 62.2595 150.124 61.823 150.921C61.4108 151.799 61.208 152.762 61.2306 153.733C61.1699 154.656 61.3491 155.579 61.7507 156.411C62.1524 157.244 62.7627 157.958 63.5221 158.483C64.2548 158.936 65.0498 159.186 65.9383 159.186ZM83.3192 139.218C83.3192 139.764 83.2256 140.264 82.9762 140.671C82.7268 141.061 82.3839 141.421 81.9318 141.671C81.4798 141.921 80.9965 142.014 80.4977 142.014C79.9989 142.014 79.5 141.921 79.048 141.671C78.6204 141.432 78.2609 141.088 78.0036 140.671C77.7622 140.226 77.6438 139.724 77.6606 139.218C77.6606 138.655 77.7698 138.155 78.0036 137.764C78.253 137.296 78.6115 137.014 79.048 136.764C79.5 136.514 79.9833 136.405 80.4977 136.405C80.9939 136.394 81.4845 136.511 81.9217 136.747C82.3589 136.982 82.7276 137.328 82.9918 137.749C83.2187 138.204 83.331 138.709 83.3192 139.218V139.218ZM78.0192 163.124V144.28H82.9762V163.155H78.0036L78.0192 163.124ZM96.2262 149.218V149.28C95.9924 149.171 95.6806 149.124 95.4468 149.077C95.135 149.014 94.8856 149.014 94.5895 149.014C93.2021 149.014 92.1577 149.421 91.4718 150.264C90.7236 151.124 90.3806 152.327 90.3806 153.874V163.139H85.408V144.264H89.9753L90.1312 147.124C90.63 146.124 91.2224 145.374 92.0642 144.811C92.9015 144.265 93.8872 143.992 94.8856 144.03C95.2442 144.03 95.5871 144.061 95.8833 144.124C96.0392 144.171 96.1327 144.171 96.2262 144.218V149.218V149.218ZM98.2215 163.124V136.53H103.179V146.686C103.88 145.78 104.675 145.077 105.673 144.53C107.252 143.754 109.046 143.534 110.766 143.905C112.485 144.276 114.03 145.218 115.15 146.577C116.831 148.518 117.722 151.023 117.644 153.593C117.67 156.212 116.751 158.754 115.057 160.749C114.273 161.67 113.297 162.407 112.199 162.909C111.1 163.411 109.904 163.666 108.697 163.655C107.561 163.686 106.435 163.427 105.426 162.902C104.417 162.378 103.558 161.604 102.929 160.655L102.773 163.108L98.2215 163.155V163.124ZM107.808 159.186C108.697 159.186 109.492 158.936 110.24 158.483C110.926 157.983 111.487 157.327 111.924 156.53C112.329 155.733 112.516 154.78 112.516 153.718C112.516 152.671 112.329 151.718 111.924 150.921C111.514 150.152 110.939 149.485 110.24 148.968C109.51 148.512 108.668 148.27 107.808 148.27C106.949 148.27 106.106 148.512 105.377 148.968C104.675 149.468 104.129 150.124 103.677 150.921C103.265 151.799 103.062 152.762 103.085 153.733C103.024 154.656 103.203 155.579 103.605 156.411C104.007 157.244 104.617 157.958 105.377 158.483C106.109 158.936 106.904 159.186 107.808 159.186ZM119.515 163.139V144.264H124.082L124.238 146.718C124.812 145.777 125.626 145.008 126.597 144.488C127.567 143.969 128.658 143.719 129.757 143.764C131.013 143.743 132.248 144.093 133.307 144.771C134.366 145.449 135.203 146.425 135.711 147.577C136.257 148.764 136.553 150.233 136.553 151.874V163.186H131.58V152.53C131.58 151.218 131.284 150.186 130.692 149.421C130.099 148.671 129.289 148.264 128.26 148.264C127.512 148.264 126.857 148.421 126.28 148.764C125.735 149.124 125.283 149.577 124.94 150.218C124.593 150.865 124.421 151.592 124.441 152.327V163.139H119.515V163.139ZM139.032 163.139V136.514H144.004V146.671C144.678 145.759 145.554 145.018 146.563 144.505C147.572 143.993 148.687 143.723 149.819 143.718C150.993 143.7 152.157 143.948 153.223 144.443C154.288 144.938 155.23 145.668 155.976 146.577C157.645 148.518 158.529 151.015 158.454 153.577C158.482 156.197 157.562 158.739 155.867 160.733C155.083 161.654 154.107 162.392 153.009 162.894C151.91 163.396 150.714 163.65 149.507 163.639C148.371 163.671 147.245 163.412 146.236 162.887C145.227 162.362 144.368 161.589 143.739 160.639L143.599 163.093L139.032 163.139V163.139ZM148.665 159.186C149.569 159.186 150.364 158.936 151.097 158.483C151.798 157.983 152.344 157.327 152.796 156.53C153.186 155.733 153.388 154.78 153.388 153.718C153.449 152.795 153.27 151.872 152.868 151.039C152.467 150.207 151.856 149.493 151.097 148.968C150.367 148.512 149.525 148.27 148.665 148.27C147.805 148.27 146.963 148.512 146.233 148.968C145.547 149.468 144.986 150.124 144.55 150.921C144.115 151.792 143.911 152.76 143.957 153.733C143.897 154.656 144.076 155.579 144.477 156.411C144.879 157.244 145.49 157.958 146.249 158.483C146.982 158.936 147.73 159.186 148.665 159.186Z" fill="#FF385C"/>
</g>
<path d="M285.13 151.641C285.13 158.581 279.768 163.696 273.187 163.696C266.606 163.696 261.244 158.581 261.244 151.641C261.244 144.652 266.606 139.587 273.187 139.587C279.768 139.587 285.13 144.652 285.13 151.641ZM279.902 151.641C279.902 147.304 276.794 144.337 273.187 144.337C269.58 144.337 266.472 147.304 266.472 151.641C266.472 155.935 269.58 158.946 273.187 158.946C276.794 158.946 279.902 155.929 279.902 151.641Z" fill="#EA4335"/>
<path d="M310.895 151.641C310.895 158.581 305.533 163.696 298.952 163.696C292.371 163.696 287.009 158.581 287.009 151.641C287.009 144.658 292.371 139.587 298.952 139.587C305.533 139.587 310.895 144.652 310.895 151.641ZM305.667 151.641C305.667 147.304 302.559 144.337 298.952 144.337C295.345 144.337 292.237 147.304 292.237 151.641C292.237 155.935 295.345 158.946 298.952 158.946C302.559 158.946 305.667 155.929 305.667 151.641Z" fill="#FBBC05"/>
<path d="M335.586 140.315V161.956C335.586 170.859 330.401 174.494 324.271 174.494C318.501 174.494 315.028 170.587 313.718 167.391L318.27 165.473C319.08 167.435 321.066 169.75 324.266 169.75C328.189 169.75 330.621 167.299 330.621 162.685V160.951H330.438C329.268 162.413 327.014 163.69 324.169 163.69C318.216 163.69 312.763 158.44 312.763 151.685C312.763 144.88 318.216 139.587 324.169 139.587C327.008 139.587 329.263 140.864 330.438 142.283H330.621V140.321H335.586V140.315ZM330.991 151.685C330.991 147.44 328.195 144.337 324.636 144.337C321.029 144.337 318.007 147.44 318.007 151.685C318.007 155.886 321.029 158.946 324.636 158.946C328.195 158.946 330.991 155.886 330.991 151.685Z" fill="#4285F4"/>
<path d="M343.772 127.63V162.956H338.673V127.63H343.772Z" fill="#34A853"/>
<path d="M363.643 155.609L367.701 158.348C366.392 160.31 363.236 163.69 357.782 163.69C351.019 163.69 345.968 158.397 345.968 151.636C345.968 144.467 351.062 139.581 357.197 139.581C363.375 139.581 366.397 144.56 367.385 147.25L367.927 148.62L352.012 155.293C353.23 157.712 355.125 158.946 357.782 158.946C360.444 158.946 362.291 157.62 363.643 155.609ZM351.153 151.272L361.792 146.799C361.207 145.293 359.446 144.245 357.374 144.245C354.717 144.245 351.019 146.62 351.153 151.272Z" fill="#EA4335"/>
<path d="M241.943 148.505V143.391H258.963C259.13 144.283 259.216 145.337 259.216 146.478C259.216 150.315 258.18 155.06 254.841 158.44C251.594 161.864 247.444 163.69 241.948 163.69C231.76 163.69 223.193 155.288 223.193 144.973C223.193 134.658 231.76 126.255 241.948 126.255C247.584 126.255 251.599 128.495 254.616 131.413L251.051 135.022C248.888 132.967 245.958 131.37 241.943 131.37C234.503 131.37 228.684 137.44 228.684 144.973C228.684 152.505 234.503 158.576 241.943 158.576C246.768 158.576 249.516 156.614 251.277 154.831C252.705 153.386 253.644 151.321 254.014 148.5L241.943 148.505Z" fill="#4285F4"/>
<path d="M508.184 154.343L506.915 157.822H506.809C506.597 157.037 506.209 155.843 505.575 154.411L498.769 137.868H492.104V164.234H496.512V147.964C496.512 146.941 496.512 145.781 496.476 144.349C496.441 143.633 496.371 143.087 496.335 142.677H496.441C496.653 143.701 496.9 144.451 497.076 144.929L505.257 164.166H508.361L516.472 144.758C516.648 144.315 516.824 143.428 517.001 142.677H517.106C517.001 144.622 516.93 146.361 516.895 147.419V164.132H521.585V137.8H515.167L508.184 154.343ZM526.028 145.236H530.613V164.132H526.028V145.236ZM528.356 137.254C527.58 137.254 526.945 137.527 526.416 138.005C525.887 138.482 525.605 139.096 525.605 139.846C525.605 140.563 525.887 141.177 526.416 141.654C526.945 142.132 527.58 142.371 528.356 142.371C529.132 142.371 529.802 142.098 530.295 141.654C530.824 141.177 531.107 140.563 531.107 139.846C531.107 139.13 530.824 138.516 530.295 138.005C529.837 137.527 529.167 137.254 528.356 137.254ZM546.87 145.065C546.024 144.895 545.142 144.792 544.296 144.792C542.215 144.792 540.311 145.236 538.724 146.122C537.137 147.009 535.867 148.237 535.056 149.772C534.21 151.341 533.787 153.149 533.787 155.229C533.787 157.037 534.21 158.64 535.021 160.107C535.832 161.539 536.96 162.699 538.477 163.484C539.923 164.268 541.615 164.677 543.52 164.677C545.706 164.677 547.575 164.234 549.056 163.415L549.092 163.381V159.288L548.915 159.425C548.245 159.902 547.469 160.312 546.694 160.55C545.882 160.823 545.142 160.96 544.507 160.96C542.673 160.96 541.228 160.448 540.205 159.322C539.147 158.231 538.618 156.73 538.618 154.854C538.618 152.91 539.147 151.375 540.24 150.25C541.333 149.124 542.779 148.544 544.542 148.544C546.024 148.544 547.54 149.022 548.915 149.977L549.092 150.113V145.781L549.056 145.747C548.457 145.508 547.787 145.236 546.87 145.065ZM561.999 144.929C560.87 144.929 559.812 145.27 558.895 145.986C558.119 146.6 557.59 147.487 557.132 148.544H557.097V145.236H552.512V164.132H557.097V154.479C557.097 152.842 557.449 151.477 558.225 150.488C559.001 149.465 559.988 148.953 561.187 148.953C561.611 148.953 562.034 149.056 562.563 149.124C563.056 149.26 563.409 149.397 563.656 149.567L563.832 149.704V145.27L563.727 145.236C563.409 145.031 562.774 144.929 561.999 144.929ZM574.482 144.826C571.273 144.826 568.699 145.747 566.9 147.555C565.067 149.363 564.185 151.853 564.185 154.991C564.185 157.924 565.102 160.312 566.865 162.051C568.628 163.757 571.026 164.643 574.024 164.643C577.162 164.643 579.666 163.722 581.465 161.881C583.299 160.039 584.18 157.583 584.18 154.547C584.18 151.546 583.334 149.158 581.606 147.419C579.948 145.679 577.515 144.826 574.482 144.826ZM578.15 159.357C577.304 160.414 575.963 160.926 574.306 160.926C572.649 160.926 571.308 160.414 570.356 159.288C569.404 158.231 568.946 156.696 568.946 154.752C568.946 152.739 569.439 151.205 570.356 150.113C571.308 149.022 572.613 148.476 574.271 148.476C575.893 148.476 577.162 148.988 578.079 150.045C578.996 151.102 579.49 152.637 579.49 154.65C579.419 156.696 579.032 158.299 578.15 159.357ZM594.407 153.081C592.961 152.501 592.044 152.057 591.621 151.682C591.268 151.341 591.092 150.864 591.092 150.25C591.092 149.738 591.304 149.226 591.833 148.885C592.362 148.544 592.961 148.374 593.843 148.374C594.619 148.374 595.43 148.51 596.206 148.715C596.981 148.919 597.687 149.226 598.251 149.636L598.427 149.772V145.611L598.321 145.577C597.792 145.372 597.087 145.167 596.241 144.997C595.394 144.86 594.619 144.792 593.984 144.792C591.797 144.792 589.999 145.304 588.588 146.429C587.178 147.487 586.508 148.919 586.508 150.591C586.508 151.477 586.649 152.262 586.966 152.91C587.283 153.558 587.742 154.172 588.377 154.684C589.011 155.161 589.928 155.707 591.198 156.219C592.256 156.662 593.067 157.003 593.561 157.276C594.054 157.549 594.372 157.856 594.619 158.095C594.795 158.367 594.901 158.708 594.901 159.152C594.901 160.414 593.913 161.028 591.903 161.028C591.127 161.028 590.316 160.891 589.364 160.584C588.412 160.277 587.53 159.834 586.79 159.322L586.613 159.186V163.518L586.719 163.552C587.389 163.859 588.2 164.064 589.188 164.302C590.175 164.473 591.057 164.609 591.833 164.609C594.195 164.609 596.135 164.098 597.51 162.972C598.921 161.881 599.661 160.482 599.661 158.674C599.661 157.412 599.309 156.287 598.533 155.434C597.51 154.615 596.241 153.763 594.407 153.081ZM611.757 144.826C608.548 144.826 605.974 145.747 604.175 147.555C602.377 149.363 601.46 151.853 601.46 154.991C601.46 157.924 602.377 160.312 604.14 162.051C605.903 163.757 608.301 164.643 611.299 164.643C614.437 164.643 616.941 163.722 618.74 161.881C620.574 160.039 621.455 157.583 621.455 154.547C621.455 151.546 620.609 149.158 618.881 147.419C617.223 145.679 614.79 144.826 611.757 144.826ZM615.39 159.357C614.543 160.414 613.203 160.926 611.546 160.926C609.853 160.926 608.548 160.414 607.596 159.288C606.644 158.231 606.185 156.696 606.185 154.752C606.185 152.739 606.679 151.205 607.596 150.113C608.548 149.022 609.853 148.476 611.51 148.476C613.097 148.476 614.402 148.988 615.319 150.045C616.236 151.102 616.73 152.637 616.73 154.65C616.73 156.696 616.271 158.299 615.39 159.357ZM645.964 148.885V145.236H641.345V139.642L641.204 139.676L636.831 140.938L636.725 140.972V145.236H629.813V142.848C629.813 141.757 630.095 140.904 630.589 140.358C631.082 139.812 631.823 139.539 632.74 139.539C633.375 139.539 634.045 139.676 634.785 139.983L634.962 140.085V136.231L634.856 136.197C634.221 135.992 633.375 135.856 632.281 135.856C630.906 135.856 629.707 136.163 628.614 136.674C627.521 137.254 626.71 138.039 626.11 139.096C625.511 140.119 625.193 141.279 625.193 142.609V145.236H621.984V148.851H625.193V164.132H629.813V148.885H636.725V158.606C636.725 162.597 638.664 164.609 642.544 164.609C643.178 164.609 643.848 164.507 644.483 164.405C645.153 164.268 645.647 164.098 645.929 163.961L645.964 163.927V160.277L645.788 160.414C645.506 160.584 645.259 160.721 644.836 160.823C644.483 160.926 644.166 160.96 643.919 160.96C643.002 160.96 642.367 160.755 641.909 160.243C641.486 159.766 641.274 158.981 641.274 157.822V148.885H645.964Z" fill="#737373"/>
<path d="M433 129H454.617V149.909H433V129Z" fill="#F25022"/>
<path d="M456.874 129H478.491V149.909H456.874V129Z" fill="#7FBA00"/>
<path d="M433 152.091H454.617V173H433V152.091Z" fill="#00A4EF"/>
<path d="M456.874 152.091H478.491V173H456.874V152.091Z" fill="#FFB900"/>
<g clip-path="url(#clip1_49_739)">
<path d="M814.109 170.743L825.785 157.812L814.109 144.879H826.428L832.211 151.161L837.779 144.879H849.668L838.048 157.758L849.828 170.743H837.458L831.728 164.409L826.052 170.743H814.109Z" fill="#FF6600"/>
<path d="M814.109 139.081H800.886V144.879H814.109V153.617H800.886V161.637H814.109V170.743H791.167V130H814.109V139.081Z" fill="#FF6600"/>
<path d="M781.489 130V146.674H781.382C779.24 144.246 776.563 143.403 773.457 143.403C767.094 143.403 762.301 147.666 760.619 153.303C758.7 147.092 753.752 143.286 746.415 143.286C740.456 143.286 735.751 145.923 733.295 150.219V144.879H720.979V139.082H734.42V130H710V170.744H720.979V153.617H731.922C731.596 154.875 731.422 156.222 731.422 157.643C731.422 166.142 738.009 172.106 746.415 172.106C753.483 172.106 758.142 168.834 760.606 162.87H751.197C749.924 164.662 748.959 165.194 746.415 165.194C743.464 165.194 740.921 162.657 740.921 159.649H760.079C760.909 166.4 766.244 172.221 773.565 172.221C776.723 172.221 779.614 170.69 781.382 168.105H781.489V170.742H791.167V130H781.489ZM741.226 153.738C741.837 151.151 743.873 149.459 746.415 149.459C749.213 149.459 751.145 151.098 751.654 153.738C751.868 153.738 741.226 153.738 741.226 153.738ZM775.616 164.54C772.048 164.54 769.831 161.263 769.831 157.842C769.831 154.185 771.759 150.668 775.616 150.668C779.614 150.668 781.207 154.185 781.207 157.842C781.206 161.31 779.519 164.54 775.616 164.54Z" fill="#652C8F"/>
</g>
<defs>
<clipPath id="clip0_49_739">
<rect width="159" height="50" fill="white" transform="translate(0 126)"/>
</clipPath>
<clipPath id="clip1_49_739">
<rect width="140" height="42" fill="white" transform="translate(710 130)"/>
</clipPath>
</defs>
</svg>
